<mxfile host="app.diagrams.net" modified="2020-07-27T06:55:23.550Z" agent="5.0 (Windows NT 10.0; Win64; x64) AppleWebKit/537.36 (KHTML, like Gecko) Chrome/84.0.4147.89 Safari/537.36" etag="kcAcYbTstU6T1CyJ7cRE" version="13.5.3" type="github">
  <diagram name="Page-1" id="0783ab3e-0a74-02c8-0abd-f7b4e66b4bec">
    <mxGraphModel dx="2272" dy="794" grid="1" gridSize="10" guides="1" tooltips="1" connect="1" arrows="1" fold="1" page="1" pageScale="1" pageWidth="850" pageHeight="1100" background="#ffffff" math="0" shadow="0">
      <root>
        <mxCell id="0" />
        <mxCell id="1" parent="0" />
        <mxCell id="APu-yJNH_bNmDufyjcgZ-1" value="分布式多设备远程合照流程图" style="swimlane;html=1;childLayout=stackLayout;startSize=20;rounded=0;shadow=0;comic=0;labelBackgroundColor=none;strokeWidth=1;fontFamily=Verdana;fontSize=12;align=center;" parent="1" vertex="1">
          <mxGeometry x="-730" y="90" width="610" height="380" as="geometry" />
        </mxCell>
        <mxCell id="APu-yJNH_bNmDufyjcgZ-4" value="分布式设备A&lt;br&gt;（主用户A APP）" style="swimlane;html=1;startSize=40;" parent="APu-yJNH_bNmDufyjcgZ-1" vertex="1">
          <mxGeometry y="20" width="340" height="360" as="geometry" />
        </mxCell>
        <mxCell id="APu-yJNH_bNmDufyjcgZ-5" value="登录合照APP" style="rounded=1;whiteSpace=wrap;html=1;shadow=0;comic=0;labelBackgroundColor=none;strokeWidth=1;fontFamily=Verdana;fontSize=12;align=center;arcSize=50;" parent="APu-yJNH_bNmDufyjcgZ-4" vertex="1">
          <mxGeometry x="40" y="150" width="100" height="30" as="geometry" />
        </mxCell>
        <mxCell id="APu-yJNH_bNmDufyjcgZ-6" style="edgeStyle=orthogonalEdgeStyle;rounded=0;orthogonalLoop=1;jettySize=auto;html=1;exitX=0.5;exitY=1;exitDx=0;exitDy=0;entryX=0.5;entryY=0;entryDx=0;entryDy=0;" parent="APu-yJNH_bNmDufyjcgZ-4" source="APu-yJNH_bNmDufyjcgZ-7" target="APu-yJNH_bNmDufyjcgZ-5" edge="1">
          <mxGeometry relative="1" as="geometry" />
        </mxCell>
        <mxCell id="APu-yJNH_bNmDufyjcgZ-7" value="&lt;font color=&quot;#ffffff&quot;&gt;开始&lt;/font&gt;" style="ellipse;whiteSpace=wrap;html=1;rounded=0;shadow=0;comic=0;labelBackgroundColor=none;strokeWidth=1;fillColor=#000000;fontFamily=Verdana;fontSize=12;align=center;" parent="APu-yJNH_bNmDufyjcgZ-4" vertex="1">
          <mxGeometry x="70" y="80" width="40" height="40" as="geometry" />
        </mxCell>
        <mxCell id="APu-yJNH_bNmDufyjcgZ-13" style="edgeStyle=orthogonalEdgeStyle;rounded=0;orthogonalLoop=1;jettySize=auto;html=1;exitX=0.5;exitY=1;exitDx=0;exitDy=0;entryX=0.5;entryY=0;entryDx=0;entryDy=0;" parent="APu-yJNH_bNmDufyjcgZ-4" source="APu-yJNH_bNmDufyjcgZ-14" target="APu-yJNH_bNmDufyjcgZ-59" edge="1">
          <mxGeometry relative="1" as="geometry">
            <mxPoint x="90" y="290" as="targetPoint" />
          </mxGeometry>
        </mxCell>
        <mxCell id="APu-yJNH_bNmDufyjcgZ-14" value="保持登录状态" style="rounded=1;whiteSpace=wrap;html=1;shadow=0;comic=0;labelBackgroundColor=none;strokeWidth=1;fontFamily=Verdana;fontSize=12;align=center;arcSize=50;" parent="APu-yJNH_bNmDufyjcgZ-4" vertex="1">
          <mxGeometry x="40" y="221" width="100" height="30" as="geometry" />
        </mxCell>
        <mxCell id="APu-yJNH_bNmDufyjcgZ-24" value="Yes" style="edgeStyle=orthogonalEdgeStyle;rounded=0;orthogonalLoop=1;jettySize=auto;html=1;exitX=0;exitY=0.5;exitDx=0;exitDy=0;" parent="APu-yJNH_bNmDufyjcgZ-4" source="APu-yJNH_bNmDufyjcgZ-26" target="APu-yJNH_bNmDufyjcgZ-14" edge="1">
          <mxGeometry relative="1" as="geometry" />
        </mxCell>
        <mxCell id="APu-yJNH_bNmDufyjcgZ-25" value="No" style="edgeStyle=orthogonalEdgeStyle;rounded=0;orthogonalLoop=1;jettySize=auto;html=1;exitX=0.5;exitY=1;exitDx=0;exitDy=0;entryX=0.5;entryY=0;entryDx=0;entryDy=0;" parent="APu-yJNH_bNmDufyjcgZ-4" source="APu-yJNH_bNmDufyjcgZ-26" target="APu-yJNH_bNmDufyjcgZ-27" edge="1">
          <mxGeometry relative="1" as="geometry" />
        </mxCell>
        <mxCell id="APu-yJNH_bNmDufyjcgZ-59" value="" style="shape=mxgraph.bpmn.shape;html=1;verticalLabelPosition=bottom;labelBackgroundColor=#ffffff;verticalAlign=top;perimeter=ellipsePerimeter;outline=end;symbol=terminate;rounded=0;shadow=0;comic=0;strokeWidth=1;fontFamily=Verdana;fontSize=12;align=center;" parent="APu-yJNH_bNmDufyjcgZ-4" vertex="1">
          <mxGeometry x="70" y="303" width="40" height="40" as="geometry" />
        </mxCell>
        <mxCell id="APu-yJNH_bNmDufyjcgZ-26" value="登陆是否成功？" style="rhombus;whiteSpace=wrap;html=1;" parent="APu-yJNH_bNmDufyjcgZ-4" vertex="1">
          <mxGeometry x="210" y="196" width="80" height="80" as="geometry" />
        </mxCell>
        <mxCell id="APu-yJNH_bNmDufyjcgZ-27" value="提示用户登录失败" style="rounded=1;whiteSpace=wrap;html=1;shadow=0;comic=0;labelBackgroundColor=none;strokeWidth=1;fontFamily=Verdana;fontSize=12;align=center;arcSize=50;" parent="APu-yJNH_bNmDufyjcgZ-4" vertex="1">
          <mxGeometry x="200" y="308" width="100" height="30" as="geometry" />
        </mxCell>
        <mxCell id="APu-yJNH_bNmDufyjcgZ-38" value="云端系统" style="swimlane;html=1;startSize=40;" parent="APu-yJNH_bNmDufyjcgZ-1" vertex="1">
          <mxGeometry x="340" y="20" width="270" height="360" as="geometry" />
        </mxCell>
        <mxCell id="APu-yJNH_bNmDufyjcgZ-39" value="社交账户模块" style="swimlane;html=1;startSize=40;" parent="APu-yJNH_bNmDufyjcgZ-38" vertex="1">
          <mxGeometry y="40" width="270" height="320" as="geometry" />
        </mxCell>
        <mxCell id="APu-yJNH_bNmDufyjcgZ-62" style="edgeStyle=orthogonalEdgeStyle;rounded=0;orthogonalLoop=1;jettySize=auto;html=1;exitX=0.5;exitY=1;exitDx=0;exitDy=0;entryX=0.5;entryY=0;entryDx=0;entryDy=0;" parent="APu-yJNH_bNmDufyjcgZ-39" source="APu-yJNH_bNmDufyjcgZ-41" target="APu-yJNH_bNmDufyjcgZ-61" edge="1">
          <mxGeometry relative="1" as="geometry" />
        </mxCell>
        <mxCell id="APu-yJNH_bNmDufyjcgZ-41" value="用户登录" style="rounded=1;whiteSpace=wrap;html=1;shadow=0;comic=0;labelBackgroundColor=none;strokeWidth=1;fontFamily=Verdana;fontSize=12;align=center;arcSize=50;" parent="APu-yJNH_bNmDufyjcgZ-39" vertex="1">
          <mxGeometry x="90" y="110" width="100" height="30" as="geometry" />
        </mxCell>
        <mxCell id="APu-yJNH_bNmDufyjcgZ-61" value="返回登录结果" style="rounded=1;whiteSpace=wrap;html=1;shadow=0;comic=0;labelBackgroundColor=none;strokeWidth=1;fontFamily=Verdana;fontSize=12;align=center;arcSize=50;" parent="APu-yJNH_bNmDufyjcgZ-39" vertex="1">
          <mxGeometry x="90" y="181" width="100" height="30" as="geometry" />
        </mxCell>
        <mxCell id="APu-yJNH_bNmDufyjcgZ-49" style="edgeStyle=orthogonalEdgeStyle;rounded=0;orthogonalLoop=1;jettySize=auto;html=1;exitX=1;exitY=0.5;exitDx=0;exitDy=0;entryX=0;entryY=0.5;entryDx=0;entryDy=0;" parent="APu-yJNH_bNmDufyjcgZ-1" source="APu-yJNH_bNmDufyjcgZ-5" target="APu-yJNH_bNmDufyjcgZ-41" edge="1">
          <mxGeometry relative="1" as="geometry" />
        </mxCell>
        <mxCell id="APu-yJNH_bNmDufyjcgZ-50" value="登录/建立连接" style="edgeLabel;html=1;align=center;verticalAlign=middle;resizable=0;points=[];" parent="APu-yJNH_bNmDufyjcgZ-49" vertex="1" connectable="0">
          <mxGeometry x="-0.8278" relative="1" as="geometry">
            <mxPoint x="35" as="offset" />
          </mxGeometry>
        </mxCell>
        <mxCell id="APu-yJNH_bNmDufyjcgZ-63" style="edgeStyle=orthogonalEdgeStyle;rounded=0;orthogonalLoop=1;jettySize=auto;html=1;exitX=0;exitY=0.5;exitDx=0;exitDy=0;entryX=1;entryY=0.5;entryDx=0;entryDy=0;dashed=1;" parent="APu-yJNH_bNmDufyjcgZ-1" source="APu-yJNH_bNmDufyjcgZ-61" target="APu-yJNH_bNmDufyjcgZ-26" edge="1">
          <mxGeometry relative="1" as="geometry" />
        </mxCell>
      </root>
    </mxGraphModel>
  </diagram>
</mxfile>
